<svg id="Layer_1" data-name="Layer 1" xmlns="http://www.w3.org/2000/svg" viewBox="0 0 1440 1011.04"><defs><style>.cls-1,.cls-2{fill:#fff;}.cls-1{opacity:0.61;}</style></defs><path class="cls-1" d="M324.36,972.77q-32.82,0-59.65-9.94a170.36,170.36,0,0,1-84.26-66.61,261.48,261.48,0,0,1-25.35-48.71,271.51,271.51,0,0,1-14.91-52.94,310.55,310.55,0,0,1-4.72-53.44v-81q0-69.09-32.56-99.41T3.74,530.37V442.89q66.61,0,99.17-30.57t32.56-100.16v-81A347.76,347.76,0,0,1,139.69,178a278.83,278.83,0,0,1,13.67-53.19A240.23,240.23,0,0,1,177.47,76.3a165.79,165.79,0,0,1,35.79-39.52A169.13,169.13,0,0,1,262,9.94Q289.56,0,324.36,0l13.42,69.09q-32.8-.48-51.2,14.17t-26.84,38q-8.46,23.37-10.19,52.44t-1.74,57.41v81q0,59.16-28.34,104.88t-88,69.59q60.13,23.87,88.23,69.09t28.09,104.39v81a452,452,0,0,0,3.72,57.41q3.74,29.09,13.92,52.44T293,889q17.4,14.65,44.74,14.17Z"/><path class="cls-2" d="M566.94,256H842.32V802.27q0,52.68-14.91,91.71t-43,65.12q-28.1,26.1-69.09,39T622.12,1011q-25.35,0-49.21-1.74a363.73,363.73,0,0,1-47.72-6.71l7-96.43q6.95,1.49,18.64,2.73t23.86,2q12.17.75,23.36,1t17.15.24a156.23,156.23,0,0,0,42-5.46,87.76,87.76,0,0,0,34.3-18.15q14.65-12.68,22.86-33.8t8.2-52.44V354.91H566.94ZM712.09,116.81q0-27.82,17.89-46t50.2-18.14q32.82,0,51,18.14t18.15,46q0,27.84-18.15,46t-51,18.14q-32.31,0-50.2-18.14T712.09,116.81Z"/><path class="cls-1" d="M1102.22,903.18q27.33.48,44.74-14.17t27.34-38q9.93-23.37,13.92-52.44a423.42,423.42,0,0,0,4-57.41v-81q0-58.15,27.34-103.64t85.5-69.84q-58.15-24.35-85.5-70.08t-27.34-104.39v-81q0-28.33-1.74-57.41t-10.19-52.44q-8.44-23.37-26.84-38t-51.2-14.17L1115.64,0q34.8,0,62.39,9.94a169.26,169.26,0,0,1,48.71,26.84,166.22,166.22,0,0,1,35.79,39.52,241.29,241.29,0,0,1,24.11,48.46A279.57,279.57,0,0,1,1300.31,178a349,349,0,0,1,4.22,53.19v81q0,69.6,32.31,100.16t99.42,30.57v87.48q-67.11,0-99.42,30.33t-32.31,99.41v81a313,313,0,0,1-4.72,53.19,270.55,270.55,0,0,1-14.91,53.19,262.68,262.68,0,0,1-25.35,48.71,170.36,170.36,0,0,1-84.26,66.61q-26.83,9.93-59.65,9.94Z"/></svg>